<svg xmlns="http://www.w3.org/2000/svg" xmlns:xlink="http://www.w3.org/1999/xlink" width="500" zoomAndPan="magnify" viewBox="0 0 375 374.999991" height="500" preserveAspectRatio="xMidYMid meet" version="1.0"><defs><clipPath id="05883f6ee4"><path d="M 42.832031 20.933594 L 321 20.933594 L 321 337.433594 L 42.832031 337.433594 Z M 42.832031 20.933594 " clip-rule="nonzero"/></clipPath></defs><rect x="-37.5" width="450" fill="#ffffff" y="-37.499999" height="449.999989" fill-opacity="1"/><rect x="-37.5" width="450" fill="#ffffff" y="-37.499999" height="449.999989" fill-opacity="1"/><g clip-path="url(#05883f6ee4)"><path fill="#004aad" d="M 320.695312 232.265625 C 320.695312 157.957031 249.898438 143.902344 202.996094 134.417969 C 187.886719 131.429688 162.589844 126.335938 162.589844 121.066406 C 162.589844 114.214844 177.171875 111.929688 191.050781 111.929688 C 214.765625 111.929688 240.238281 118.78125 266.765625 132.132812 L 275.195312 136.347656 L 310.683594 50.796875 L 303.832031 46.933594 C 274.492188 30.417969 233.5625 20.933594 191.753906 20.933594 C 148.011719 20.933594 111.648438 31.296875 86.527344 51.148438 C 62.8125 69.769531 49.8125 96.296875 49.8125 126.160156 C 49.8125 200.820312 120.078125 215.402344 166.632812 225.0625 C 183.144531 228.578125 207.914062 233.671875 207.914062 239.644531 C 207.914062 243.683594 196.847656 246.320312 179.457031 246.320312 C 149.945312 246.320312 115.511719 236.832031 89.511719 221.375 L 81.082031 216.28125 L 42.960938 302.710938 L 49.460938 306.75 C 80.378906 325.722656 129.742188 337.492188 178.578125 337.492188 C 222.144531 337.492188 258.683594 326.953125 283.804688 306.925781 C 307.519531 288.304688 320.695312 261.777344 320.695312 232.265625 Z M 320.695312 232.265625 " fill-opacity="1" fill-rule="nonzero"/></g></svg>